<mxfile host="app.diagrams.net" modified="2023-08-26T05:20:09.483Z" agent="Mozilla/5.0 (Macintosh; Intel Mac OS X 10_15_7) AppleWebKit/537.36 (KHTML, like Gecko) Chrome/116.0.0.0 Safari/537.36" etag="8Krbz2CKYrxTqbwzHHy8" version="21.6.9" type="github">
  <diagram name="Page-1" id="Y_ufeTRf04-fx62d55Sm">
    <mxGraphModel dx="954" dy="562" grid="1" gridSize="10" guides="1" tooltips="1" connect="1" arrows="1" fold="1" page="1" pageScale="1" pageWidth="850" pageHeight="1100" math="0" shadow="0">
      <root>
        <mxCell id="0" />
        <mxCell id="1" parent="0" />
        <mxCell id="jKbvBpw0e3ZyOjj8SsRC-6" value="" style="edgeStyle=orthogonalEdgeStyle;rounded=0;orthogonalLoop=1;jettySize=auto;html=1;" edge="1" parent="1" source="jKbvBpw0e3ZyOjj8SsRC-1" target="jKbvBpw0e3ZyOjj8SsRC-3">
          <mxGeometry relative="1" as="geometry" />
        </mxCell>
        <mxCell id="jKbvBpw0e3ZyOjj8SsRC-1" value="Pengguna" style="shape=umlActor;verticalLabelPosition=bottom;verticalAlign=top;html=1;" vertex="1" parent="1">
          <mxGeometry x="190" y="170" width="30" height="60" as="geometry" />
        </mxCell>
        <mxCell id="jKbvBpw0e3ZyOjj8SsRC-7" style="edgeStyle=orthogonalEdgeStyle;rounded=0;orthogonalLoop=1;jettySize=auto;html=1;entryX=0;entryY=0.5;entryDx=0;entryDy=0;" edge="1" parent="1" source="jKbvBpw0e3ZyOjj8SsRC-3" target="jKbvBpw0e3ZyOjj8SsRC-4">
          <mxGeometry relative="1" as="geometry" />
        </mxCell>
        <mxCell id="jKbvBpw0e3ZyOjj8SsRC-8" style="edgeStyle=orthogonalEdgeStyle;rounded=0;orthogonalLoop=1;jettySize=auto;html=1;entryX=-0.025;entryY=0.66;entryDx=0;entryDy=0;entryPerimeter=0;" edge="1" parent="1" source="jKbvBpw0e3ZyOjj8SsRC-3" target="jKbvBpw0e3ZyOjj8SsRC-5">
          <mxGeometry relative="1" as="geometry">
            <Array as="points">
              <mxPoint x="420" y="201" />
              <mxPoint x="420" y="263" />
            </Array>
          </mxGeometry>
        </mxCell>
        <mxCell id="jKbvBpw0e3ZyOjj8SsRC-3" value="Website Fish feeder" style="ellipse;whiteSpace=wrap;html=1;" vertex="1" parent="1">
          <mxGeometry x="280" y="173" width="120" height="55" as="geometry" />
        </mxCell>
        <mxCell id="jKbvBpw0e3ZyOjj8SsRC-4" value="Feed Now" style="ellipse;whiteSpace=wrap;html=1;" vertex="1" parent="1">
          <mxGeometry x="440" y="125" width="120" height="50" as="geometry" />
        </mxCell>
        <mxCell id="jKbvBpw0e3ZyOjj8SsRC-5" value="Feed Stop" style="ellipse;whiteSpace=wrap;html=1;" vertex="1" parent="1">
          <mxGeometry x="440" y="230" width="120" height="50" as="geometry" />
        </mxCell>
        <mxCell id="jKbvBpw0e3ZyOjj8SsRC-9" value="ESP8266" style="ellipse;whiteSpace=wrap;html=1;" vertex="1" parent="1">
          <mxGeometry x="285" y="280" width="110" height="50" as="geometry" />
        </mxCell>
        <mxCell id="jKbvBpw0e3ZyOjj8SsRC-15" value="Fish feeder" style="shape=umlFrame;whiteSpace=wrap;html=1;pointerEvents=0;" vertex="1" parent="1">
          <mxGeometry x="240" y="100" width="350" height="250" as="geometry" />
        </mxCell>
        <mxCell id="jKbvBpw0e3ZyOjj8SsRC-17" value="Extends" style="endArrow=block;endSize=16;endFill=0;html=1;rounded=0;exitX=0.5;exitY=0;exitDx=0;exitDy=0;entryX=0.5;entryY=1;entryDx=0;entryDy=0;" edge="1" parent="1" source="jKbvBpw0e3ZyOjj8SsRC-9" target="jKbvBpw0e3ZyOjj8SsRC-3">
          <mxGeometry width="160" relative="1" as="geometry">
            <mxPoint x="340" y="200" as="sourcePoint" />
            <mxPoint x="500" y="200" as="targetPoint" />
          </mxGeometry>
        </mxCell>
      </root>
    </mxGraphModel>
  </diagram>
</mxfile>
